<?xml version="1.0" standalone="no"?>
<!DOCTYPE svg PUBLIC "-//W3C//DTD SVG 20010904//EN"
 "http://www.w3.org/TR/2001/REC-SVG-20010904/DTD/svg10.dtd">
<svg version="1.0" xmlns="http://www.w3.org/2000/svg"
 width="50.000000pt" height="50.000000pt" viewBox="0 0 50.000000 50.000000"
 preserveAspectRatio="xMidYMid meet">

<g transform="translate(0.000000,50.000000) scale(0.100000,-0.100000)"
fill="#000000" stroke="none">
<path d="M345 359 c-6 -8 -4 -10 4 -4 9 5 12 2 9 -11 -2 -11 -10 -18 -16 -16
-7 1 -12 -3 -12 -9 0 -18 35 -5 38 15 5 23 -13 42 -23 25z"/>
<path d="M183 333 c20 -2 54 -2 75 0 20 2 3 4 -38 4 -41 0 -58 -2 -37 -4z"/>
<path d="M133 288 c2 -27 7 -34 27 -36 14 -2 31 -9 39 -15 12 -9 13 -9 7 1 -4
7 -2 21 5 30 11 14 11 15 -1 5 -8 -7 -26 -13 -41 -13 -23 0 -29 5 -33 30 -6
30 -6 30 -3 -2z"/>
<path d="M301 293 c-1 -27 -5 -33 -24 -33 -13 0 -28 5 -35 10 -9 7 -9 7 -2 -2
7 -8 4 -18 -8 -32 -17 -21 -17 -21 4 -3 11 9 30 17 43 17 25 0 35 18 28 52 -3
17 -5 15 -6 -9z"/>
</g>
</svg>
