<?xml version="1.0" standalone="no"?>
<!DOCTYPE svg PUBLIC "-//W3C//DTD SVG 20010904//EN"
 "http://www.w3.org/TR/2001/REC-SVG-20010904/DTD/svg10.dtd">
<svg version="1.0" xmlns="http://www.w3.org/2000/svg"
 width="50.000000pt" height="50.000000pt" viewBox="0 0 50.000000 50.000000"
 preserveAspectRatio="xMidYMid meet">

<g transform="translate(0.000000,50.000000) scale(0.100000,-0.100000)"
fill="#000000" stroke="none">
<path d="M307 364 c-15 -8 -27 -19 -27 -24 0 -14 12 -12 34 5 17 13 22 13 42
0 27 -18 34 -19 34 -5 0 5 -12 16 -28 24 -24 12 -31 12 -55 0z"/>
<path d="M320 307 c0 -7 -16 -19 -35 -27 -19 -8 -35 -19 -35 -25 0 -7 -9 -20
-20 -30 -24 -21 -27 -11 -4 12 13 13 13 17 2 24 -18 12 -24 11 -42 -7 -9 -8
-21 -12 -27 -8 -8 5 -8 9 1 14 8 5 3 7 -13 7 l-26 -2 22 -24 22 -23 -22 6
c-13 4 -23 3 -23 -2 0 -13 27 -23 45 -16 8 4 15 1 15 -4 0 -6 -12 -12 -27 -14
-20 -2 -29 -9 -31 -25 -3 -23 -3 -23 130 -21 l133 2 -127 3 c-71 2 -128 7
-128 11 0 7 94 45 114 46 5 1 10 10 12 21 5 33 44 57 86 53 21 -2 38 0 38 4 0
5 -7 8 -15 8 -8 0 -15 7 -15 15 0 8 -7 15 -15 15 -8 0 -15 -6 -15 -13z m-100
-51 c0 -3 -4 -8 -10 -11 -5 -3 -10 -1 -10 4 0 6 5 11 10 11 6 0 10 -2 10 -4z
m-23 -32 c-3 -3 -12 -4 -19 -1 -8 3 -5 6 6 6 11 1 17 -2 13 -5z"/>
</g>
</svg>
