<?xml version="1.0" standalone="no"?>
<!DOCTYPE svg PUBLIC "-//W3C//DTD SVG 20010904//EN"
 "http://www.w3.org/TR/2001/REC-SVG-20010904/DTD/svg10.dtd">
<svg version="1.0" xmlns="http://www.w3.org/2000/svg"
 width="50.000000pt" height="50.000000pt" viewBox="0 0 50.000000 50.000000"
 preserveAspectRatio="xMidYMid meet">

<g transform="translate(0.000000,50.000000) scale(0.100000,-0.100000)"
fill="#000000" stroke="none">
<path d="M220 227 c0 -13 -10 -17 -45 -17 -25 0 -45 -3 -45 -8 0 -14 91 0 97
14 3 8 3 18 -1 21 -3 4 -6 -1 -6 -10z"/>
<path d="M255 204 c48 -8 115 -9 115 -2 0 5 -30 7 -67 7 -38 -1 -59 -3 -48 -5z"/>
<path d="M339 164 c-10 -13 -30 -15 -100 -12 -48 1 -85 0 -82 -4 2 -5 43 -8
91 -8 76 0 89 2 100 20 15 24 10 26 -9 4z"/>
</g>
</svg>
